#!OML:ASF X:\2005_08_12_Meinard\c3d\meinard.ASF
:FULLY-SPECIFIED
:DEGREES
492
root 0.824075 17.0612 -2.64367 -3.015 -74.5046 -9.90228
lowerback 35.2493 -3.25565 -4.60865
upperback 5.93717 -6.68163 -1.75518
thorax -10.8909 -3.20141 3.26109
lowerneck -8.47239 -6.24074 -0.724009
upperneck 1.20376 -8.66858 7.71304
head 2.27016 -4.16517 2.19803
rclavicle 3.4191e-014 -1.59028e-014
rhumerus 43.1677 26.9798 49.253
rradius 30.9106
rwrist -71.5046
rhand -37.6656 -13.5141
rfingers 7.12502
rthumb -10.7167 -43.2207
lclavicle 3.4191e-014 -1.59028e-014
lhumerus 49.3266 -37.454 52.1014
lradius 112.091
lwrist 10.9319
lhand -12.7245 -23.3474
lfingers 7.12502
lthumb 13.3588 6.20432
rfemur -6.20384 -6.57497 15.2288
rtibia 33.1121
rfoot -9.42988 1.97726
rtoes -17.5471
lfemur 16.2861 -2.93297 -11.0476
ltibia 23.0322
lfoot -19.9827 12.1387
ltoes -28.0588
493
root 0.78472 17.0582 -2.6839 -2.9002 -74.6652 -9.98163
lowerback 35.2132 -3.2441 -4.71343
upperback 5.92996 -6.70524 -1.76141
thorax -10.8733 -3.2103 3.31607
lowerneck -8.78168 -6.18987 -0.640344
upperneck 1.72633 -8.6342 7.52461
head 2.48446 -4.12853 2.10984
rclavicle -3.1408e-014 1.90833e-014
rhumerus 43.4792 27.0169 49.5846
rradius 30.8274
rwrist -71.5549
rhand -38.2215 -13.6713
rfingers 7.12502
rthumb -11.2529 -43.3495
lclavicle -3.1408e-014 1.90833e-014
lhumerus 49.2936 -37.2101 51.8288
lradius 112.198
lwrist 11.0151
lhand -12.4615 -23.8283
lfingers 7.12502
lthumb 13.6123 5.70669
rfemur -6.29148 -6.75182 15.4522
rtibia 33.3133
rfoot -9.6234 1.8988
rtoes -16.925
lfemur 16.3579 -2.91103 -10.8719
ltibia 23.0729
lfoot -19.877 12.2253
ltoes -28.3027
494
root 0.748172 17.0535 -2.7249 -2.75101 -74.7957 -10.0825
lowerback 35.2074 -3.24998 -4.79003
upperback 5.90253 -6.74233 -1.77159
thorax -10.8924 -3.22327 3.3605
lowerneck -9.02742 -6.14079 -0.505893
upperneck 2.16777 -8.60158 7.33136
head 2.65844 -4.09701 2.01389
rclavicle -4.85035e-014 0
rhumerus 43.8616 27.1511 50.0571
rradius 30.7253
rwrist -71.6881
rhand -39.0129 -13.8264
rfingers 7.12502
rthumb -12.0161 -43.4614
lclavicle -4.85035e-014 0
lhumerus 49.2332 -37.0062 51.6366
lradius 112.226
lwrist 11.0133
lhand -12.2325 -24.2641
lfingers 7.12502
lthumb 13.833 5.25596
rfemur -6.40641 -6.99847 15.6705
rtibia 33.5275
rfoot -9.80872 1.8622
rtoes -16.2275
lfemur 16.3637 -2.88731 -10.6707
ltibia 23.1575
lfoot -19.7561 12.2647
ltoes -28.4844
495
root 0.712107 17.0484 -2.7655 -2.71236 -74.9203 -10.0809
lowerback 35.2345 -3.25091 -4.8878
upperback 5.8681 -6.78179 -1.76994
thorax -10.9278 -3.23559 3.43158
lowerneck -9.2842 -6.10354 -0.396545
upperneck 2.60779 -8.58063 7.12484
head 2.83649 -4.07199 1.91711
rclavicle -9.54166e-015 1.43125e-014
rhumerus 44.2257 27.2838 50.5688
rradius 30.6105
rwrist -71.8172
rhand -39.9301 -14.0158
rfingers 7.12502
rthumb -12.9004 -43.597
lclavicle -9.54166e-015 1.43125e-014
lhumerus 49.1014 -36.7937 51.5675
lradius 112.211
lwrist 10.997
lhand -11.9853 -24.6413
lfingers 7.12502
lthumb 14.0712 4.86234
rfemur -6.5193 -7.23909 15.8536
rtibia 33.7665
rfoot -10.0308 1.82845
rtoes -15.5503
lfemur 16.3736 -2.8919 -10.5223
ltibia 23.2633
lfoot -19.6249 12.3348
ltoes -28.7605
496
root 0.676726 17.043 -2.80594 -2.68087 -75.0424 -10.0805
lowerback 35.3618 -3.24923 -4.97264
upperback 5.75572 -6.82253 -1.75995
thorax -10.9751 -3.24791 3.47783
lowerneck -9.50563 -6.0771 -0.24466
upperneck 2.99501 -8.57357 6.89608
head 2.98807 -4.05694 1.80616
rclavicle 5.24792e-014 1.43125e-014
rhumerus 44.5502 27.3904 50.9831
rradius 30.4425
rwrist -72.0191
rhand -40.8405 -14.1898
rfingers 7.12502
rthumb -13.7779 -43.7135
lclavicle 5.24792e-014 1.43125e-014
lhumerus 48.9841 -36.6075 51.531
lradius 112.139
lwrist 10.9864
lhand -11.7529 -24.9095
lfingers 7.12502
lthumb 14.2951 4.57842
rfemur -6.61891 -7.48315 16.0241
rtibia 34.0116
rfoot -10.2497 1.84516
rtoes -14.8136
lfemur 16.3686 -2.92396 -10.3839
ltibia 23.4058
lfoot -19.5007 12.4455
ltoes -28.9646
497
root 0.640829 17.0365 -2.84666 -2.5728 -75.1644 -10.1553
lowerback 35.4079 -3.24825 -5.03425
upperback 5.72348 -6.84702 -1.75174
thorax -11.0195 -3.25396 3.53236
lowerneck -9.67964 -6.05824 -0.112894
upperneck 3.29274 -8.57007 6.69744
head 3.10398 -4.04705 1.71046
rclavicle -4.65156e-014 1.11319e-014
rhumerus 44.8001 27.4857 51.3558
rradius 30.284
rwrist -72.4923
rhand -41.6888 -14.1905
rfingers 7.12502
rthumb -14.5953 -43.6569
lclavicle -4.65156e-014 1.11319e-014
lhumerus 48.8623 -36.4346 51.5471
lradius 112.027
lwrist 10.9691
lhand -11.5726 -25.1153
lfingers 7.12502
lthumb 14.4688 4.36028
rfemur -6.72542 -7.75068 16.214
rtibia 34.2662
rfoot -10.477 1.94283
rtoes -14.3857
lfemur 16.3647 -2.93078 -10.2113
ltibia 23.5531
lfoot -19.3787 12.5189
ltoes -29.2598
498
root 0.605079 17.0305 -2.88604 -2.50989 -75.2619 -10.1657
lowerback 35.4509 -3.26426 -5.07541
upperback 5.6852 -6.88644 -1.75604
thorax -11.0723 -3.26651 3.56909
lowerneck -9.82185 -6.04456 0.0459806
upperneck 3.55353 -8.57355 6.49261
head 3.20012 -4.04251 1.60872
rclavicle 6.12257e-014 1.43125e-014
rhumerus 44.9807 27.5304 51.6041
rradius 30.1279
rwrist -73.2243
rhand -42.3803 -13.9985
rfingers 7.12502
rthumb -15.2615 -43.4155
lclavicle 6.12257e-014 1.43125e-014
lhumerus 48.7159 -36.2913 51.5876
lradius 111.918
lwrist 10.9573
lhand -11.4054 -25.1956
lfingers 7.12502
lthumb 14.6299 4.26839
rfemur -6.84749 -8.06082 16.3707
rtibia 34.5152
rfoot -10.6674 2.10651
rtoes -14.1329
lfemur 16.3325 -2.99709 -10.085
ltibia 23.7104
lfoot -19.2481 12.6512
ltoes -29.4091
499
root 0.567995 17.024 -2.92469 -2.50253 -75.3614 -10.1348
lowerback 35.4984 -3.27405 -5.10065
upperback 5.65373 -6.91329 -1.76442
thorax -11.1223 -3.2743 3.5884
lowerneck -9.94796 -6.05407 0.165143
upperneck 3.76743 -8.60176 6.31332
head 3.28195 -4.05183 1.52149
rclavicle 7.91163e-014 1.11319e-014
rhumerus 45.0487 27.5308 51.6958
rradius 30.0203
rwrist -74.3174
rhand -42.9093 -13.5345
rfingers 7.12502
rthumb -15.771 -42.912
lclavicle 7.91163e-014 1.11319e-014
lhumerus 48.6254 -36.1711 51.624
lradius 111.814
lwrist 10.9908
lhand -11.2411 -25.1558
lfingers 7.12502
lthumb 14.7882 4.29656
rfemur -6.9386 -8.40232 16.5031
rtibia 34.7613
rfoot -10.8394 2.31523
rtoes -13.9486
lfemur 16.3284 -3.03997 -9.96987
ltibia 23.8523
lfoot -19.1326 12.763
ltoes -29.7664
500
root 0.531294 17.0185 -2.96274 -2.50069 -75.4344 -10.116
lowerback 35.5729 -3.31913 -5.05192
upperback 5.62721 -6.96209 -1.79479
thorax -11.1865 -3.29389 3.55638
lowerneck -10.0578 -6.07033 0.163097
upperneck 3.95759 -8.63015 6.23924
head 3.36578 -4.06049 1.4905
rclavicle -7.87187e-014 3.18055e-015
rhumerus 44.8551 27.3032 51.3128
rradius 30.0271
rwrist -75.3713
rhand -43.1846 -13.003
rfingers 7.12502
rthumb -16.0361 -42.3594
lclavicle -7.87187e-014 3.18055e-015
lhumerus 48.5269 -36.0607 51.6584
lradius 111.705
lwrist 11.0054
lhand -11.1336 -25.0843
lfingers 7.12502
lthumb 14.8918 4.36046
rfemur -7.00183 -8.77583 16.6246
rtibia 35.0029
rfoot -10.9977 2.57815
rtoes -13.7708
lfemur 16.3401 -3.11408 -9.85187
ltibia 23.9769
lfoot -18.9972 12.8886
ltoes -29.9168
501
root 0.493531 17.0126 -3.00146 -2.51655 -75.5079 -10.0511
lowerback 35.6263 -3.37015 -5.00784
upperback 5.5821 -7.0176 -1.82299
thorax -11.2625 -3.31468 3.53163
lowerneck -10.1517 -6.10681 0.076221
upperneck 4.15862 -8.67601 6.18883
head 3.45736 -4.07819 1.48111
rclavicle -2.70347e-014 1.11319e-014
rhumerus 44.4165 26.8258 50.4286
rradius 30.1719
rwrist -76.2925
rhand -43.2193 -12.4642
rfingers 7.12502
rthumb -16.0696 -41.8179
lclavicle -2.70347e-014 1.11319e-014
lhumerus 48.4002 -35.948 51.7005
lradius 111.602
lwrist 11.0842
lhand -11.0153 -25.0015
lfingers 7.12502
lthumb 15.0058 4.43475
rfemur -7.08856 -9.12258 16.7382
rtibia 35.2403
rfoot -11.1742 2.81985
rtoes -13.7321
lfemur 16.3479 -3.20583 -9.75965
ltibia 24.0776
lfoot -18.8653 13.0472
ltoes -30.1749
